<svg xmlns="http://www.w3.org/2000/svg" viewBox="0 0 673.75 469.16"><defs><style>.cls-1,.cls-2{fill:#fff;}.cls-1{fill-rule:evenodd;}</style></defs><title>Recurso 2</title><g id="Capa_2" data-name="Capa 2"><g id="Capa_1-2" data-name="Capa 1"><path class="cls-1" d="M202.43,292.44c-3.79-8.07-4.21-13.81-4.25-23.06-.64-17,1.2-24.54,3.91-40,0-.11,0-.24.08-.35,10.14-31.18,1.57-58.76-1.82-83.29C195.54,119,188.89,95,177.58,70.9,161.23,36.12,118.91,1.41,85.44,0,45.11-.07,8.58,9.41.61,69.73c-4.86,43.12,19.52,153.45,62,200.36a2.7,2.7,0,0,1,.63,1.18l2.14,8.51a2.8,2.8,0,0,1,.09.58c.59,16.33.44,65.53-3.24,84.59,0,.1,0,.19,0,.29-4,45.45,17.51,100.4,77.46,103.92a2.9,2.9,0,0,0,.51,0c37.67-3.88,78.4-26.61,85.85-82a3.2,3.2,0,0,0,0-.53c-1.09-27.21-12.58-70.76-23.58-94.15M202,205.56c0,11.1-4.16,20.32-6.76,29.65a2.8,2.8,0,0,1-4,1.73c-11.64-6.14-35.38-28.76-45-36-11.51-8.63-37.35-27.73-37.35-45.73,0-9.15,16-25.18,25.18-25.18,5.56,0,16.22,8.08,21.46,11.76a2.82,2.82,0,0,1,1.2,2.31v12.73a2.81,2.81,0,0,0,.51,1.63c12.1,17,44.81,27.7,44.81,47.1m-17.63,52.87c0,18.95-6.07,24.18-18.6,31.75-5.12,3.09-29.87,16.09-34.27,16.09-2.56,0-17.5-6.24-23.12-7.08-7.15-1.07-20.92,2-25.29-2.41-1.12-1.13-9.5-44.73-9.5-45.9,0-7.3,33.15-37.77,47.84-37.77,1.43,0,27.6,20.32,32.18,23.22,8.73,5.54,30.76,12,30.76,22.1m10.08-105.74c0,8.1-9.92,10.07-17.63,10.07-4.81,0-15.63-22.92-19.69-29.52a2.76,2.76,0,0,0-1.21-1.06c-7-3.3-29.45-9.68-29.45-14.74,0-11.59,4.81-15.23,9.34-21.6a2.82,2.82,0,0,1,2-1.2l25.89-2.89a2.85,2.85,0,0,1,.92,0l2.13.47c18.39,0,27.7,42.78,27.7,60.43M8.12,72.12c0-19.61,22-54.12,41.6-61.47,26.08-9,48.06,4.95,55,11.82a2.83,2.83,0,0,1,.25,3.71c-7,9.33-9.62,4.31-13.38,18.65C89,54.64,87.72,60.9,85.17,71.11c-4.9,19.6-12.33,34.62-16.1,49.23a2.82,2.82,0,0,1-2.72,2.14h-5.8a2.77,2.77,0,0,1-2.64-2c-6.2-20.14-21.85-28.23-39.72-28.23H10.94a2.82,2.82,0,0,1-2.82-2.81Zm10,77.73L11,119.38A13.78,13.78,0,0,1,34.4,106.76c9.93,10.4,19.41,25.79,29.11,25.79,40.25,0,28.73-108.27,65.47-108.27,4.29,0,32,37.36,38.85,49.76a2.79,2.79,0,0,1-1.57,4c-7.55,2.57-9.37,6.7-14.62,6.7h-9.23a26.84,26.84,0,0,0-21.48,10.76l-.22.3A76.57,76.57,0,0,0,107.64,123c-2.94,11.81-7.73,23.13-5.45,36.23,2.24,12.78,8.14,34.49,5.12,46.1a2.74,2.74,0,0,1-3.81,1.82c-20.6-8.56-30.26-46.85-75.67-49.27A10.52,10.52,0,0,1,20.22,154a10.31,10.31,0,0,1-2.07-4.19M46,210.72a2.81,2.81,0,0,0-2.79-2.66l-6.72,0a3.55,3.55,0,0,1-2.9-4.07q-1.39-14-2.76-28a2.8,2.8,0,0,1,2.79-3.09l9.79,0c12.73,0,32.73,13.12,32.73,27.7v17.62c0,9.71-6.22,15.49-9.28,24.88a2.79,2.79,0,0,1-3.88,1.64c-9.87-4.92-16.27-19.76-17-33.95m129.86,233c-10.18,7.69-17.16,13.1-31.2,16.8-21.75,5.73-13.91-6.86-13.18-23.56a2.84,2.84,0,0,0-2.05-2.86c-3.72-1.09-4.65-2-10.49-2-3.94,0-5.82,4.2-7,8.1a2.8,2.8,0,0,1-2.69,2h-7.94c-20.34,0-25.18-35.59-25.18-57.91,0-20.81,29.87-25.18,50.36-25.18a2.83,2.83,0,0,1,3,2.65L133,422a2.82,2.82,0,0,0,2.81,2.65l28.43,0c3.14,0,20.13-9.43,20.13-12.58,0-37.61-31.82-42.53-52.46-56.31a29.19,29.19,0,0,0-11.55-4.61c-8-1.28-6.83-4.54-16.55-4.54H93.73c-9.26,0-11.92,8.27-17.93,12.76a2.82,2.82,0,0,1-4.54-2.38c.87-14.89,4.54-43.12,14.91-43.12h25.18c6,0,6.82.95,10.81,2.06a2.85,2.85,0,0,1,2,2.36l2.2,17.66a2.84,2.84,0,0,0,.38,1.09l1,1.74a2.8,2.8,0,0,0,4.12.82c21.74-16.91,6.62-37.75,62.74-38.31a2.83,2.83,0,0,1,2.78,2.26l10.29,50.69a2.82,2.82,0,0,1-1.64,3.14c-5.91,2.57-11.63,4.55-11.63,11.88V374a2.81,2.81,0,0,0,2.81,2.81H202c7.88,0,15.11-6.55,15.11,5v5c0,23.18-26.58,45.79-41.28,56.91"/><path class="cls-2" d="M661.44,159.44a19.44,19.44,0,0,0-4.14-10,11.58,11.58,0,0,0-9.64-4.23,13.18,13.18,0,0,0-9.81,4.9,18.82,18.82,0,0,0-4.38,10.31Zm12.31,22.15q-12.66,17.07-25.23,17.49-9.59.34-16.46-7.79A27.28,27.28,0,0,1,625.27,174,34,34,0,0,1,632,152.34q7.72-10.6,19.16-11a17.67,17.67,0,0,1,14.39,5.92q5.13,5.82,5.75,14.82L633,163.41c0,1.54,0,2.68,0,3.39a28.76,28.76,0,0,0,5.39,16.37c3.81,5.21,8.76,7.72,14.81,7.5q10.17-.36,20.38-13Zm-52.93,12.12-16.15,7.09-2.91.1-.69-19.69A98.78,98.78,0,0,1,591,194.14c-4.69,4.81-9.38,7.28-14,7.45-6.54.22-10-4.28-10.29-13.55l-1.13-32.42c-.12-3.44-2-5.1-5.69-5a19.48,19.48,0,0,0-3.3.48l-.1-2.79L576.69,144l.08,2.31c-1.64.54-2.42,1.93-2.35,4.19l1.28,36.7c.18,5.18,2.22,7.7,6.15,7.57q9-.32,14.77-13.81A50.11,50.11,0,0,0,601,159.67c-.24-7-2.49-10.49-6.72-10.34a16.72,16.72,0,0,0-3.36.6l-.1-2.8,20.52-4.34.08,2.31c-1.73.34-2.56,1.75-2.47,4.2l1.33,38.11c.13,3.68,1.55,5.48,4.28,5.38a15.22,15.22,0,0,0,6.17-2Zm-84.06-30a44.8,44.8,0,0,0-1-7.69q-8.13-4.37-15.18-4.11c-5.73.2-10,3.21-13,9a33.43,33.43,0,0,0-3.22,16.44,27.63,27.63,0,0,0,3,12.3c2.41,4.39,5.78,6.5,10.14,6.35q9.32-.33,15-12.21a43.12,43.12,0,0,0,4.28-20.09m19.63,62.23-27.17.95-.1-2.85c3.28-.16,5.58-1,6.87-2.45s1.89-3.9,1.78-7.22l-1-29.65a120.28,120.28,0,0,1-11,12.26c-5,4.45-9.76,6.74-14.42,6.91-5,.18-9.1-2.15-12.11-7a27.93,27.93,0,0,1-4.06-14.16,35.1,35.1,0,0,1,4.58-18.22q5.07-9.31,13.07-13.44c4.5-2.31,10.12-3.54,16.8-3.69l5.68-.14c5.45-.15,8.73-1.48,9.78-4l3.14-.12q-3.51,6.66-3.11,17.76L546.89,214c.12,3.32.89,5.67,2.29,7.08s3.79,2,7.1,1.95Zm-74.76-46.31A32.06,32.06,0,0,0,478,166a26.15,26.15,0,0,0-9.33-10.48,17.33,17.33,0,0,0-9.66-2.8q-8.26.28-12.47,6.6-3.74,5.6-3.42,14.14a30.17,30.17,0,0,0,6.73,18.1c4.64,5.94,10.2,8.78,16.63,8.56a13.73,13.73,0,0,0,11.7-6.81,23.27,23.27,0,0,0,3.43-13.66m7.85-6.86a31.83,31.83,0,0,1-7.83,22.43q-8.5,10-21.07,10.46-11.34.39-18.21-6.66-6.58-6.8-7-18.22a32,32,0,0,1,7.71-22.29q8.49-10.18,20.83-10.6,11.44-.39,18.39,6.55,6.76,6.82,7.18,18.33M431.4,148.9l-4.21.14q-.75-17-18.61-16.37l-3.2.11,2.13,60.72c.21,6.11,3.31,9.17,9.33,9.09l.1,2.86-29,1-.1-2.85q5.28-.24,7.07-2.32c1.2-1.39,1.75-3.86,1.62-7.41l-2.12-60.72-4.11.15q-16.41.57-16.34,17.59l-4.17.14L369,128.52l2.61-.09c.59,1.76,1.39,2.63,2.42,2.59l51.81-1.81c1.36-.05,2-1,1.94-2.74l2.83-.1ZM325.61,171.17a19.56,19.56,0,0,0-4.14-10,11.66,11.66,0,0,0-9.65-4.22,13.14,13.14,0,0,0-9.8,4.9,18.72,18.72,0,0,0-4.38,10.31Zm12.3,22.15q-12.66,17.06-25.22,17.49-9.6.34-16.47-7.79a27.19,27.19,0,0,1-6.78-17.33,33.85,33.85,0,0,1,6.72-21.61q7.71-10.62,19.15-11A17.64,17.64,0,0,1,329.7,159q5.13,5.81,5.74,14.82l-38.25,1.33c0,1.54,0,2.68,0,3.39a28.71,28.71,0,0,0,5.39,16.36q5.71,7.83,14.82,7.51,10.16-.35,20.38-13ZM268,172.83a33.56,33.56,0,0,0-.95-7.15q-8.5-6.52-16.15-6.27-8.24.28-12.6,9.6a35.71,35.71,0,0,0-3.23,16.61,27.15,27.15,0,0,0,3.61,12.88c2.7,4.61,6.22,6.84,10.62,6.68,5.81-.2,10.58-4.34,14.36-12.43A43.77,43.77,0,0,0,268,172.83m18.36,32.9-14.92,6.46-2.77.1L268,193.14a144.77,144.77,0,0,1-9.95,12.63q-7,7.2-13.76,7.43-8.17.28-13.31-7.32a28.12,28.12,0,0,1-4.75-15.21q-.42-12,7.81-23.23,8.76-12,20.52-12.37c3.4-.12,7.46.79,12.21,2.73l-.56-16c-.11-3.36-1.47-5-4-4.9a14.2,14.2,0,0,0-5.05,1.41L257,135.1l20.25-8.55.09,2.43a3.94,3.94,0,0,0-2.41,4.14l2.31,66.28c.12,3.28,1.57,4.87,4.38,4.78a11.62,11.62,0,0,0,4.63-1.46Z"/><path class="cls-2" d="M606.17,262.53A19.77,19.77,0,0,0,602,252.35a11.82,11.82,0,0,0-9.82-4.3,13.37,13.37,0,0,0-10,5,19.22,19.22,0,0,0-4.46,10.49Zm12.52,22.54Q605.82,302.46,593,302.88q-9.76.35-16.76-7.93a27.7,27.7,0,0,1-6.91-17.64,34.62,34.62,0,0,1,6.85-22q7.84-10.78,19.49-11.19a18,18,0,0,1,14.65,6q5.22,5.93,5.85,15.08l-38.94,1.37c0,1.56,0,2.72,0,3.44a29.21,29.21,0,0,0,5.48,16.66c3.88,5.31,8.93,7.86,15.09,7.64q10.35-.36,20.74-13.24Zm-53.88,12.34-16.43,7.22-3,.1-.7-20a101.88,101.88,0,0,1-10.22,13.17c-4.78,4.88-9.56,7.4-14.3,7.57-6.66.23-10.14-4.35-10.47-13.79l-1.15-33c-.12-3.5-2-5.19-5.79-5.06a21.37,21.37,0,0,0-3.36.49l-.1-2.84,20.57-4.42.09,2.35c-1.68.56-2.48,2-2.39,4.27l1.31,37.36c.18,5.27,2.25,7.84,6.24,7.7,6.12-.21,11.14-4.91,15-14.05a51.07,51.07,0,0,0,4.44-21.68c-.24-7.17-2.53-10.68-6.84-10.53a18,18,0,0,0-3.43.62l-.09-2.84,20.88-4.42.09,2.34c-1.77.35-2.6,1.79-2.51,4.28L554.07,291q.2,5.63,4.36,5.48a15.68,15.68,0,0,0,6.28-2Zm-85.56-30.55A46.62,46.62,0,0,0,478.2,259c-5.51-3-10.65-4.35-15.46-4.19-5.83.21-10.21,3.27-13.2,9.17a34,34,0,0,0-3.28,16.74,27.91,27.91,0,0,0,3.1,12.52q3.66,6.71,10.31,6.47c6.33-.23,11.38-4.36,15.22-12.44a43.75,43.75,0,0,0,4.36-20.45m20,63.35-27.65,1-.1-2.9c3.34-.16,5.68-1,7-2.5s1.92-4,1.8-7.35l-1-30.18A124.38,124.38,0,0,1,468,300.74q-7.56,6.78-14.67,7c-5.15.18-9.28-2.19-12.34-7.12a28.43,28.43,0,0,1-4.13-14.42,35.66,35.66,0,0,1,4.67-18.53q5.14-9.49,13.3-13.7,6.88-3.51,17.1-3.75l5.79-.13c5.54-.16,8.88-1.51,9.95-4.05l3.19-.11q-3.57,6.78-3.16,18.08l1.88,54.08c.12,3.38.91,5.76,2.34,7.2s3.85,2.08,7.22,2Zm-76.09-47.13a32.44,32.44,0,0,0-3.69-13.9A26.6,26.6,0,0,0,410,258.52a17.7,17.7,0,0,0-9.84-2.86q-8.42.28-12.7,6.71-3.8,5.72-3.48,14.4a30.69,30.69,0,0,0,6.85,18.43q7.09,9.06,16.93,8.71A14,14,0,0,0,419.64,297a23.78,23.78,0,0,0,3.5-13.9m8-7a32.46,32.46,0,0,1-8,22.83c-5.76,6.8-12.93,10.35-21.45,10.65q-11.54.4-18.53-6.78-6.72-6.92-7.13-18.54a32.53,32.53,0,0,1,7.85-22.7q8.64-10.37,21.2-10.79,11.66-.4,18.72,6.67,6.88,6.94,7.32,18.66M372,251.8l-4.29.14q-.75-17.3-18.94-16.66l-3.25.11,2.16,61.81c.22,6.22,3.38,9.33,9.5,9.26l.1,2.9-29.52,1-.1-2.9c3.58-.16,6-.95,7.19-2.36s1.79-3.94,1.66-7.54l-2.16-61.81-4.18.15q-16.73.57-16.64,17.91l-4.24.14-.81-22.93,2.66-.09c.6,1.79,1.41,2.68,2.47,2.64l52.74-1.85c1.38,0,2-1,2-2.79l2.89-.1Zm-93.11,7.85a8.44,8.44,0,0,0-5.83,2.67q-2.56,2.94-5,10.16l-18.84,54.44q-4.35,12.52-17.51,14.14l-10.19-11.18,3.17-2.7c3.3,3.82,6.92,5.67,10.83,5.54,4.23-.15,7.35-2.43,9.38-6.81.63-1.42,1.85-4.72,3.7-9.9l.88-2.51-17.92-40.42a37.09,37.09,0,0,0-4.18-7.7,9.16,9.16,0,0,0-7.52-3.67l-.1-2.91,19.56-.68.09,2.9c-1.52.14-2.26.64-2.23,1.52a4.12,4.12,0,0,0,.42,1.52l16.26,36.7,5.36-15.94Q262.85,274,262.61,267c-.16-4.55-3.13-6.72-8.88-6.52l-.1-2.9,25.16-.88Z"/></g></g></svg>