<svg xmlns="http://www.w3.org/2000/svg" viewBox="0 0 559.8 198.04"><defs><style>.cls-1{fill:#f7f7f8;}.cls-2{fill:#0f6946;}</style></defs><title>Recurso 2</title><g id="Capa_2" data-name="Capa 2"><g id="Capa_1-2" data-name="Capa 1"><path class="cls-1" d="M.5,5.86A6.28,6.28,0,0,1,1.9,1.59,5.33,5.33,0,0,1,6.11,0H88.4A61.84,61.84,0,0,1,113,4.91a64.09,64.09,0,0,1,20,13.31A62,62,0,0,1,146.43,37.9a59.56,59.56,0,0,1,4.91,24A57,57,0,0,1,149,78.41a61.41,61.41,0,0,1-6.56,14.65,62.27,62.27,0,0,1-10,12.36,65.56,65.56,0,0,1-12.68,9.49l32.74,61.66q.9,1.78,2.29,4.2a8.73,8.73,0,0,1,1.41,4.21,3.78,3.78,0,0,1-1.34,3.12,5.61,5.61,0,0,1-3.63,1.08h-43.7a6.33,6.33,0,0,1-3.88-1.27,5.79,5.79,0,0,1-2.23-3.44l-31-58.22H49.8V183.7c0,3.66-1.95,5.48-5.86,5.48H6.11A6,6,0,0,1,2,187.84,5.21,5.21,0,0,1,.5,183.7Zm99.75,56.56a22.19,22.19,0,0,0-1.4-7.64,25,25,0,0,0-3.95-7,23.43,23.43,0,0,0-6.11-5.35,21.13,21.13,0,0,0-7.9-2.8q-3.57-.25-6.69-.44T67.38,39H49.8V85.74H73.24c1.53,0,2.89,0,4.08-.13s2.5-.21,4-.38a20.08,20.08,0,0,0,8-2.61,20.88,20.88,0,0,0,6-5.23,23.13,23.13,0,0,0,3.7-7,25.41,25.41,0,0,0,1.27-8"/><path class="cls-1" d="M169.81,5.61a5.88,5.88,0,0,1,1.4-3.95A5.17,5.17,0,0,1,175.41,0h37.45a7.16,7.16,0,0,1,4.08,1.53,4.77,4.77,0,0,1,2.17,4.08v178c0,3.73-2.09,5.6-6.25,5.6H175.41c-3.74,0-5.6-1.87-5.6-5.6Z"/><path class="cls-1" d="M251,5.86a5.81,5.81,0,0,1,1.47-4.2A5.15,5.15,0,0,1,255.92,0H377.84a5.57,5.57,0,0,1,4.39,1.65A6.44,6.44,0,0,1,383.7,6.1V37.6a6.63,6.63,0,0,1-1.53,4.13,5.32,5.32,0,0,1-4.46,2H300.25V83.19h57.2a6.28,6.28,0,0,1,4.08,1.34,5.17,5.17,0,0,1,1.66,4.26v30.45a6.8,6.8,0,0,1-1.47,4.14,4.72,4.72,0,0,1-4,2H300.25V183.7c0,3.66-1.95,5.48-5.86,5.48H255.54c-3.06-.42-4.59-2.21-4.59-5.35Z"/><path class="cls-1" d="M443.83,5a3.74,3.74,0,0,1,.83-1.66,9,9,0,0,1,1.72-1.65A8.7,8.7,0,0,1,448.54.45,6,6,0,0,1,450.71,0h32.61A5.45,5.45,0,0,1,487,1.34a17.35,17.35,0,0,1,2.29,2.35L492.49,11l66.88,172.49c.68,1.7.56,3.08-.38,4.14s-2.55,1.59-4.84,1.59H517.59a8,8,0,0,1-4.52-1.08,7,7,0,0,1-2.49-3.63q-2.55-6.5-5-12.93t-4.85-12.94H433.13q-2.43,6.51-4.91,12.94t-4.9,12.93a6.38,6.38,0,0,1-6.5,4.71H379.24a6.21,6.21,0,0,1-4-1.27c-1.07-.85-1.26-2.12-.58-3.83ZM467,59.49q-2.42,6.51-4.9,14T457.2,88.67q-2.42,7.64-4.9,15.09t-4.9,13.95h39.11Z"/><path class="cls-2" d="M36.74,168.27A21.13,21.13,0,0,1,36,174a20.47,20.47,0,0,1-2.18,5,20.82,20.82,0,0,1-7.71,7.43,21.72,21.72,0,0,1-5.15,2.05,22.72,22.72,0,0,1-5.73.72H1.3A1.68,1.68,0,0,1,.4,189c-.27-.14-.4-.46-.4-.95V148.57a1.36,1.36,0,0,1,.33-.95,1.19,1.19,0,0,1,1-.37H15.21a22,22,0,0,1,5.71.73,21.74,21.74,0,0,1,5.14,2.09,22,22,0,0,1,4.36,3.25,20.23,20.23,0,0,1,3.37,4.23,20.87,20.87,0,0,1,2.17,5,20.43,20.43,0,0,1,.78,5.67M10.92,157.38v21.7h2.37c.43,0,.86,0,1.27,0l1.24-.1a11.36,11.36,0,0,0,3.95-1,11,11,0,0,0,3.2-2.26,10.09,10.09,0,0,0,2.15-3.29,11.2,11.2,0,0,0-.11-8.48,10.92,10.92,0,0,0-2.42-3.44A10.81,10.81,0,0,0,19,158.18a11.88,11.88,0,0,0-4.35-.8Z"/><path class="cls-2" d="M41.85,148.57a1.33,1.33,0,0,1,.32-.94,1.2,1.2,0,0,1,.91-.35h28a1.27,1.27,0,0,1,1,.36,1.39,1.39,0,0,1,.34,1v7a1.43,1.43,0,0,1-.34.91,1.18,1.18,0,0,1-1,.44H52.77v7H66.88a1.46,1.46,0,0,1,.88.26,1,1,0,0,1,.36.85v6.09a1.2,1.2,0,0,1-.31.76,1.11,1.11,0,0,1-.91.37H52.77v7.22h19A1.13,1.13,0,0,1,73,180.8v7.09a.7.7,0,0,1-.23.5c-.07.53-.46.79-1.15.79H43.08a1.37,1.37,0,0,1-.9-.29,1.19,1.19,0,0,1-.33-.92Z"/><path class="cls-2" d="M90.83,148.52a1.14,1.14,0,0,1,.38-.9,1.37,1.37,0,0,1,1-.34h30.36a1.39,1.39,0,0,1,.9.31,1.19,1.19,0,0,1,.45.93v7a1.54,1.54,0,0,1-.35,1,1.18,1.18,0,0,1-1,.47h-9.73v30.89a1.36,1.36,0,0,1-.37.92,1.24,1.24,0,0,1-1,.41h-8.27a1.34,1.34,0,0,1-.9-.38,1.23,1.23,0,0,1-.43-1V157h-9.7a1.35,1.35,0,0,1-1-.37,1.42,1.42,0,0,1-.38-1.07Z"/><path class="cls-2" d="M123.56,168.27a21.57,21.57,0,0,1,2.94-10.9,21.81,21.81,0,0,1,3.37-4.39,20.72,20.72,0,0,1,4.37-3.37,21.79,21.79,0,0,1,5.15-2.18,21.78,21.78,0,0,1,11.48,0,21.87,21.87,0,0,1,5.16,2.18,21.44,21.44,0,0,1,7.76,7.76,22.45,22.45,0,0,1,2.17,5.16A21.55,21.55,0,0,1,166,174a22,22,0,0,1-2.17,5.13,21.53,21.53,0,0,1-3.38,4.35,22.41,22.41,0,0,1-4.38,3.37,21.61,21.61,0,0,1-21.79,0,21.69,21.69,0,0,1-7.74-7.72,20.83,20.83,0,0,1-2.17-5.13,21.39,21.39,0,0,1-.77-5.75m10.92,0a12.13,12.13,0,0,0,.79,4.38,10.92,10.92,0,0,0,2.21,3.54,10.44,10.44,0,0,0,3.37,2.37,11.13,11.13,0,0,0,8.58,0,10.31,10.31,0,0,0,3.39-2.37,11.1,11.1,0,0,0,2.21-3.54,12.48,12.48,0,0,0,0-8.74,11.24,11.24,0,0,0-2.21-3.57,10.43,10.43,0,0,0-7.69-3.27,10.24,10.24,0,0,0-4.28.88,10.5,10.5,0,0,0-3.37,2.39,11.06,11.06,0,0,0-2.21,3.57,12.18,12.18,0,0,0-.79,4.36"/><path class="cls-2" d="M169.42,168.27a21.32,21.32,0,0,1,.76-5.74,21.6,21.6,0,0,1,2.17-5.16,21.85,21.85,0,0,1,3.38-4.39,20.66,20.66,0,0,1,4.36-3.37,22,22,0,0,1,5.15-2.18,21.78,21.78,0,0,1,11.48,0,21.94,21.94,0,0,1,5.17,2.18,21,21,0,0,1,4.37,3.37,21.5,21.5,0,0,1,3.38,4.39,22.45,22.45,0,0,1,2.17,5.16,20.93,20.93,0,0,1,.78,5.74,21.78,21.78,0,0,1-4.6,13.45,21.07,21.07,0,0,1-5.14,4.68,20.15,20.15,0,0,1-6.52,2.75v7.65c0,.83-.45,1.24-1.35,1.24h-8.32a1.1,1.1,0,0,1-1.25-1.24v-7.7a20.4,20.4,0,0,1-6.43-2.78,21.05,21.05,0,0,1-5.06-4.67,21.47,21.47,0,0,1-3.32-6.15,21.92,21.92,0,0,1-1.18-7.23m10.92,0a12.12,12.12,0,0,0,.78,4.38,11,11,0,0,0,2.22,3.54,10.4,10.4,0,0,0,3.36,2.37,11.13,11.13,0,0,0,8.58,0,10.31,10.31,0,0,0,3.39-2.37,10.92,10.92,0,0,0,2.21-3.54,12.48,12.48,0,0,0,0-8.74,11.06,11.06,0,0,0-2.21-3.57,10.37,10.37,0,0,0-3.39-2.39,10.9,10.9,0,0,0-8.58,0,10.45,10.45,0,0,0-3.36,2.39,11.09,11.09,0,0,0-2.22,3.57,12.17,12.17,0,0,0-.78,4.36"/><path class="cls-2" d="M228,172.47a9.73,9.73,0,0,0,.57,3.54,6.79,6.79,0,0,0,1.53,2.38,5.77,5.77,0,0,0,2.21,1.34,8.2,8.2,0,0,0,2.61.42,7.19,7.19,0,0,0,2.67-.49,6.21,6.21,0,0,0,2.21-1.47,7.1,7.1,0,0,0,1.5-2.42,9.1,9.1,0,0,0,.55-3.3V148.52a1.22,1.22,0,0,1,.35-.87,1.24,1.24,0,0,1,1-.37h8.24a1.34,1.34,0,0,1,1,.38,1.18,1.18,0,0,1,.37.86v23.79a20.83,20.83,0,0,1-1.45,8.29,14.29,14.29,0,0,1-3.91,5.41,15,15,0,0,1-5.69,2.93,25.51,25.51,0,0,1-6.78.89,24.92,24.92,0,0,1-6.8-.92,14.84,14.84,0,0,1-5.7-3,14.49,14.49,0,0,1-3.91-5.42,20.49,20.49,0,0,1-1.45-8.19V148.52a1.26,1.26,0,0,1,.32-.86,1,1,0,0,1,.8-.38h8.44a1.5,1.5,0,0,1,.89.35,1.08,1.08,0,0,1,.47.89Z"/><path class="cls-2" d="M258.69,148.57a1.33,1.33,0,0,1,.33-.94,1.18,1.18,0,0,1,.91-.35h28a1.27,1.27,0,0,1,1,.36,1.43,1.43,0,0,1,.34,1v7a1.49,1.49,0,0,1-.34.91,1.19,1.19,0,0,1-1,.44H269.61v7h14.11a1.47,1.47,0,0,1,.89.26,1,1,0,0,1,.36.85v6.09a1.16,1.16,0,0,1-.32.76,1.08,1.08,0,0,1-.9.37H269.61v7.22h19a1.14,1.14,0,0,1,1.27,1.3v7.09a.7.7,0,0,1-.23.5c-.07.53-.46.79-1.16.79H259.93a1.37,1.37,0,0,1-.9-.29,1.19,1.19,0,0,1-.34-.92Z"/><path class="cls-2" d="M325.33,162.74l6.82-14.59a3.1,3.1,0,0,1,.28-.49,1,1,0,0,1,.22-.23.75.75,0,0,1,.24-.08,1.28,1.28,0,0,0,.3-.07h10.86a.43.43,0,0,1,.33.13.41.41,0,0,1,.13.29,1.13,1.13,0,0,1-.4.71l-13.38,23.67v15.77a1.16,1.16,0,0,1-1.29,1.33H321a1.13,1.13,0,0,1-.88-.35,1.47,1.47,0,0,1-.31-1V172l-13.34-23.61a1,1,0,0,1-.37-.71.44.44,0,0,1,.11-.29.39.39,0,0,1,.31-.13h10.87a1.82,1.82,0,0,0,.31.07.79.79,0,0,1,.23.08,1.23,1.23,0,0,1,.22.23,5,5,0,0,1,.31.49Z"/><path class="cls-2" d="M360.64,148.52a1.14,1.14,0,0,1,.38-.9,1.37,1.37,0,0,1,1-.34h30.36a1.43,1.43,0,0,1,.91.31,1.26,1.26,0,0,1,.45.93v7a1.56,1.56,0,0,1-.36,1,1.18,1.18,0,0,1-1,.47H382.6v30.89a1.36,1.36,0,0,1-.37.92,1.22,1.22,0,0,1-1,.41H373a1.34,1.34,0,0,1-.9-.38,1.22,1.22,0,0,1-.42-1V157H362a1.35,1.35,0,0,1-1-.37,1.42,1.42,0,0,1-.38-1.07Z"/><path class="cls-2" d="M393.37,168.27a21.57,21.57,0,0,1,2.94-10.9,21.81,21.81,0,0,1,3.37-4.39,20.72,20.72,0,0,1,4.37-3.37,21.79,21.79,0,0,1,5.15-2.18,21.78,21.78,0,0,1,11.48,0,21.87,21.87,0,0,1,5.16,2.18,21.44,21.44,0,0,1,7.76,7.76,22.45,22.45,0,0,1,2.17,5.16,21.55,21.55,0,0,1,0,11.49,22,22,0,0,1-2.17,5.13,21.53,21.53,0,0,1-3.38,4.35,22.41,22.41,0,0,1-4.38,3.37,21.61,21.61,0,0,1-21.79,0,21.69,21.69,0,0,1-7.74-7.72,20.83,20.83,0,0,1-2.17-5.13,21.39,21.39,0,0,1-.77-5.75m10.92,0a12.13,12.13,0,0,0,.79,4.38,11.1,11.1,0,0,0,2.21,3.54,10.44,10.44,0,0,0,3.37,2.37,11.13,11.13,0,0,0,8.58,0,10.31,10.31,0,0,0,3.39-2.37,11.1,11.1,0,0,0,2.21-3.54,12.48,12.48,0,0,0,0-8.74,11.24,11.24,0,0,0-2.21-3.57A10.43,10.43,0,0,0,415,157a10.26,10.26,0,0,0-4.29.88,10.5,10.5,0,0,0-3.37,2.39,11.24,11.24,0,0,0-2.21,3.57,12.18,12.18,0,0,0-.79,4.36"/><path class="cls-2" d="M439.23,168.27a21.32,21.32,0,0,1,.76-5.74,21.6,21.6,0,0,1,2.17-5.16,21.85,21.85,0,0,1,3.38-4.39,20.66,20.66,0,0,1,4.36-3.37,22,22,0,0,1,5.15-2.18,21.78,21.78,0,0,1,11.48,0,21.94,21.94,0,0,1,5.17,2.18,21,21,0,0,1,4.37,3.37,21.5,21.5,0,0,1,3.38,4.39,22.45,22.45,0,0,1,2.17,5.16,20.93,20.93,0,0,1,.78,5.74,21.78,21.78,0,0,1-4.6,13.45,21.07,21.07,0,0,1-5.14,4.68,20.15,20.15,0,0,1-6.52,2.75v7.65c0,.83-.45,1.24-1.35,1.24h-8.32a1.1,1.1,0,0,1-1.25-1.24v-7.7a20.4,20.4,0,0,1-6.43-2.78,21.05,21.05,0,0,1-5.06-4.67,21.47,21.47,0,0,1-3.32-6.15,21.92,21.92,0,0,1-1.18-7.23m10.92,0a12.12,12.12,0,0,0,.78,4.38,11,11,0,0,0,2.22,3.54,10.4,10.4,0,0,0,3.36,2.37,11.13,11.13,0,0,0,8.58,0,10.31,10.31,0,0,0,3.39-2.37,10.92,10.92,0,0,0,2.21-3.54,12.48,12.48,0,0,0,0-8.74,11.06,11.06,0,0,0-2.21-3.57,10.37,10.37,0,0,0-3.39-2.39,10.9,10.9,0,0,0-8.58,0,10.45,10.45,0,0,0-3.36,2.39,11.09,11.09,0,0,0-2.22,3.57,12.17,12.17,0,0,0-.78,4.36"/><path class="cls-2" d="M497.8,172.47a9.72,9.72,0,0,0,.58,3.54,6.79,6.79,0,0,0,1.53,2.38,5.77,5.77,0,0,0,2.21,1.34,8.15,8.15,0,0,0,2.61.42,7.19,7.19,0,0,0,2.67-.49,6.21,6.21,0,0,0,2.21-1.47,7.1,7.1,0,0,0,1.5-2.42,9.1,9.1,0,0,0,.55-3.3V148.52a1.22,1.22,0,0,1,.35-.87,1.24,1.24,0,0,1,1-.37h8.24a1.34,1.34,0,0,1,1,.38,1.18,1.18,0,0,1,.37.86v23.79a20.83,20.83,0,0,1-1.45,8.29,14.4,14.4,0,0,1-3.91,5.41,15,15,0,0,1-5.69,2.93,25.51,25.51,0,0,1-6.78.89,24.92,24.92,0,0,1-6.8-.92,15,15,0,0,1-5.71-3,14.58,14.58,0,0,1-3.9-5.42,20.48,20.48,0,0,1-1.46-8.19V148.52a1.27,1.27,0,0,1,.33-.86,1,1,0,0,1,.8-.38h8.44a1.5,1.5,0,0,1,.89.35,1.07,1.07,0,0,1,.46.89Z"/><path class="cls-2" d="M528.5,148.57a1.33,1.33,0,0,1,.33-.94,1.18,1.18,0,0,1,.91-.35h28a1.27,1.27,0,0,1,1,.36,1.43,1.43,0,0,1,.34,1v7a1.49,1.49,0,0,1-.34.91,1.19,1.19,0,0,1-1,.44H539.42v7h14.11a1.47,1.47,0,0,1,.89.26,1,1,0,0,1,.35.85v6.09a1.15,1.15,0,0,1-.31.76,1.08,1.08,0,0,1-.9.37H539.42v7.22h19a1.14,1.14,0,0,1,1.27,1.3v7.09a.7.7,0,0,1-.23.5c-.08.53-.46.79-1.16.79H529.74a1.37,1.37,0,0,1-.9-.29,1.19,1.19,0,0,1-.34-.92Z"/></g></g></svg>